<mxfile host="app.diagrams.net" modified="2024-01-18T15:32:19.430Z" agent="Mozilla/5.0 (Windows NT 10.0; Win64; x64) AppleWebKit/537.36 (KHTML, like Gecko) Chrome/120.0.0.0 Safari/537.36" etag="jE7Cpv2Cl8V6VDyKh0Ki" version="22.1.18" type="github">
  <diagram id="C5RBs43oDa-KdzZeNtuy" name="Page-1">
    <mxGraphModel dx="1877" dy="574" grid="1" gridSize="10" guides="1" tooltips="1" connect="1" arrows="1" fold="1" page="1" pageScale="1" pageWidth="827" pageHeight="1169" math="0" shadow="0">
      <root>
        <mxCell id="WIyWlLk6GJQsqaUBKTNV-0" />
        <mxCell id="WIyWlLk6GJQsqaUBKTNV-1" parent="WIyWlLk6GJQsqaUBKTNV-0" />
        <mxCell id="u60Sw1pnuOSh4Vpb6YAL-22" style="rounded=0;orthogonalLoop=1;jettySize=auto;html=1;entryX=0.989;entryY=0.442;entryDx=0;entryDy=0;entryPerimeter=0;exitX=-0.001;exitY=0.471;exitDx=0;exitDy=0;exitPerimeter=0;" edge="1" parent="WIyWlLk6GJQsqaUBKTNV-1" source="u60Sw1pnuOSh4Vpb6YAL-1" target="u60Sw1pnuOSh4Vpb6YAL-11">
          <mxGeometry relative="1" as="geometry" />
        </mxCell>
        <mxCell id="u60Sw1pnuOSh4Vpb6YAL-0" value="Product" style="swimlane;childLayout=stackLayout;horizontal=1;startSize=50;horizontalStack=0;rounded=1;fontSize=14;fontStyle=0;strokeWidth=2;resizeParent=0;resizeLast=1;shadow=0;dashed=0;align=center;arcSize=4;whiteSpace=wrap;html=1;fillColor=#fff2cc;strokeColor=#d6b656;" vertex="1" parent="WIyWlLk6GJQsqaUBKTNV-1">
          <mxGeometry x="-160" y="120" width="160" height="270" as="geometry" />
        </mxCell>
        <mxCell id="u60Sw1pnuOSh4Vpb6YAL-1" value="+id&lt;br&gt;+name&lt;br&gt;+quantity&lt;br&gt;+price&lt;br&gt;+description&lt;br&gt;+image&lt;br&gt;+categories&lt;br&gt;+detail&lt;br&gt;+status&lt;br&gt;+rating" style="align=left;strokeColor=none;fillColor=none;spacingLeft=4;fontSize=12;verticalAlign=top;resizable=0;rotatable=0;part=1;html=1;" vertex="1" parent="u60Sw1pnuOSh4Vpb6YAL-0">
          <mxGeometry y="50" width="160" height="220" as="geometry" />
        </mxCell>
        <mxCell id="u60Sw1pnuOSh4Vpb6YAL-2" value="Order" style="swimlane;childLayout=stackLayout;horizontal=1;startSize=50;horizontalStack=0;rounded=1;fontSize=14;fontStyle=0;strokeWidth=2;resizeParent=0;resizeLast=1;shadow=0;dashed=0;align=center;arcSize=4;whiteSpace=wrap;html=1;fillColor=#e1d5e7;strokeColor=#9673a6;" vertex="1" parent="WIyWlLk6GJQsqaUBKTNV-1">
          <mxGeometry x="310" y="120" width="160" height="270" as="geometry" />
        </mxCell>
        <mxCell id="u60Sw1pnuOSh4Vpb6YAL-3" value="+id&lt;br&gt;+transactionID&lt;br&gt;+productID&lt;br&gt;+quantity&lt;br&gt;+status&lt;br&gt;" style="align=left;strokeColor=none;fillColor=none;spacingLeft=4;fontSize=12;verticalAlign=top;resizable=0;rotatable=0;part=1;html=1;" vertex="1" parent="u60Sw1pnuOSh4Vpb6YAL-2">
          <mxGeometry y="50" width="160" height="220" as="geometry" />
        </mxCell>
        <mxCell id="u60Sw1pnuOSh4Vpb6YAL-4" value="Transaction" style="swimlane;childLayout=stackLayout;horizontal=1;startSize=50;horizontalStack=0;rounded=1;fontSize=14;fontStyle=0;strokeWidth=2;resizeParent=0;resizeLast=1;shadow=0;dashed=0;align=center;arcSize=4;whiteSpace=wrap;html=1;fillColor=#f8cecc;strokeColor=#b85450;" vertex="1" parent="WIyWlLk6GJQsqaUBKTNV-1">
          <mxGeometry x="80" y="120" width="160" height="270" as="geometry" />
        </mxCell>
        <mxCell id="u60Sw1pnuOSh4Vpb6YAL-5" value="+id&lt;br&gt;+productID&lt;br&gt;+userID&lt;br&gt;+userEmail&lt;br&gt;+userPhone&lt;br&gt;+status&lt;br&gt;+amount&lt;br&gt;+payment&lt;br&gt;+message&lt;br&gt;+created" style="align=left;strokeColor=none;fillColor=none;spacingLeft=4;fontSize=12;verticalAlign=top;resizable=0;rotatable=0;part=1;html=1;" vertex="1" parent="u60Sw1pnuOSh4Vpb6YAL-4">
          <mxGeometry y="50" width="160" height="220" as="geometry" />
        </mxCell>
        <mxCell id="u60Sw1pnuOSh4Vpb6YAL-6" value="Admin" style="swimlane;childLayout=stackLayout;horizontal=1;startSize=50;horizontalStack=0;rounded=1;fontSize=14;fontStyle=0;strokeWidth=2;resizeParent=0;resizeLast=1;shadow=0;dashed=0;align=center;arcSize=4;whiteSpace=wrap;html=1;fillColor=#1ba1e2;fontColor=#ffffff;strokeColor=#006EAF;" vertex="1" parent="WIyWlLk6GJQsqaUBKTNV-1">
          <mxGeometry x="100" y="440" width="160" height="150" as="geometry" />
        </mxCell>
        <mxCell id="u60Sw1pnuOSh4Vpb6YAL-7" value="+id&lt;br&gt;+username&lt;br&gt;+pass&lt;br&gt;+status&lt;br&gt;" style="align=left;strokeColor=none;fillColor=none;spacingLeft=4;fontSize=12;verticalAlign=top;resizable=0;rotatable=0;part=1;html=1;" vertex="1" parent="u60Sw1pnuOSh4Vpb6YAL-6">
          <mxGeometry y="50" width="160" height="100" as="geometry" />
        </mxCell>
        <mxCell id="u60Sw1pnuOSh4Vpb6YAL-8" value="User" style="swimlane;childLayout=stackLayout;horizontal=1;startSize=50;horizontalStack=0;rounded=1;fontSize=14;fontStyle=0;strokeWidth=2;resizeParent=0;resizeLast=1;shadow=0;dashed=0;align=center;arcSize=4;whiteSpace=wrap;html=1;fillColor=#d80073;fontColor=#ffffff;strokeColor=#A50040;" vertex="1" parent="WIyWlLk6GJQsqaUBKTNV-1">
          <mxGeometry x="300" y="440" width="160" height="120" as="geometry" />
        </mxCell>
        <mxCell id="u60Sw1pnuOSh4Vpb6YAL-9" value="+Attribute1&#xa;+Attribute2&#xa;+Attribute3" style="align=left;strokeColor=none;fillColor=none;spacingLeft=4;fontSize=12;verticalAlign=top;resizable=0;rotatable=0;part=1;html=1;" vertex="1" parent="u60Sw1pnuOSh4Vpb6YAL-8">
          <mxGeometry y="50" width="160" height="70" as="geometry" />
        </mxCell>
        <mxCell id="u60Sw1pnuOSh4Vpb6YAL-10" value="Ratings" style="swimlane;childLayout=stackLayout;horizontal=1;startSize=50;horizontalStack=0;rounded=1;fontSize=14;fontStyle=0;strokeWidth=2;resizeParent=0;resizeLast=1;shadow=0;dashed=0;align=center;arcSize=4;whiteSpace=wrap;html=1;fillColor=#d5e8d4;strokeColor=#82b366;" vertex="1" parent="WIyWlLk6GJQsqaUBKTNV-1">
          <mxGeometry x="-380" y="130" width="160" height="260" as="geometry" />
        </mxCell>
        <mxCell id="u60Sw1pnuOSh4Vpb6YAL-11" value="+id&lt;br&gt;+title&lt;br&gt;+userName&lt;br&gt;+date&lt;br&gt;+content&lt;br&gt;+star&lt;br&gt;+like&lt;br&gt;" style="align=left;strokeColor=none;fillColor=none;spacingLeft=4;fontSize=12;verticalAlign=top;resizable=0;rotatable=0;part=1;html=1;" vertex="1" parent="u60Sw1pnuOSh4Vpb6YAL-10">
          <mxGeometry y="50" width="160" height="210" as="geometry" />
        </mxCell>
        <mxCell id="u60Sw1pnuOSh4Vpb6YAL-20" value="" style="rounded=0;orthogonalLoop=1;jettySize=auto;html=1;" edge="1" parent="WIyWlLk6GJQsqaUBKTNV-1" source="u60Sw1pnuOSh4Vpb6YAL-13" target="u60Sw1pnuOSh4Vpb6YAL-18">
          <mxGeometry relative="1" as="geometry" />
        </mxCell>
        <mxCell id="u60Sw1pnuOSh4Vpb6YAL-13" value="Categories" style="swimlane;childLayout=stackLayout;horizontal=1;startSize=50;horizontalStack=0;rounded=1;fontSize=14;fontStyle=0;strokeWidth=2;resizeParent=0;resizeLast=1;shadow=0;dashed=0;align=center;arcSize=4;whiteSpace=wrap;html=1;fillColor=#dae8fc;strokeColor=#6c8ebf;" vertex="1" parent="WIyWlLk6GJQsqaUBKTNV-1">
          <mxGeometry x="-160" y="440" width="160" height="120" as="geometry" />
        </mxCell>
        <mxCell id="u60Sw1pnuOSh4Vpb6YAL-14" value="+id&lt;br&gt;+name&lt;br&gt;" style="align=left;strokeColor=none;fillColor=none;spacingLeft=4;fontSize=12;verticalAlign=top;resizable=0;rotatable=0;part=1;html=1;" vertex="1" parent="u60Sw1pnuOSh4Vpb6YAL-13">
          <mxGeometry y="50" width="160" height="70" as="geometry" />
        </mxCell>
        <mxCell id="u60Sw1pnuOSh4Vpb6YAL-15" value="Slide" style="swimlane;childLayout=stackLayout;horizontal=1;startSize=50;horizontalStack=0;rounded=1;fontSize=14;fontStyle=0;strokeWidth=2;resizeParent=0;resizeLast=1;shadow=0;dashed=0;align=center;arcSize=4;whiteSpace=wrap;html=1;fillColor=#60a917;fontColor=#ffffff;strokeColor=#2D7600;" vertex="1" parent="WIyWlLk6GJQsqaUBKTNV-1">
          <mxGeometry x="494" y="440" width="160" height="120" as="geometry" />
        </mxCell>
        <mxCell id="u60Sw1pnuOSh4Vpb6YAL-16" value="+Attribute1&#xa;+Attribute2&#xa;+Attribute3" style="align=left;strokeColor=none;fillColor=none;spacingLeft=4;fontSize=12;verticalAlign=top;resizable=0;rotatable=0;part=1;html=1;" vertex="1" parent="u60Sw1pnuOSh4Vpb6YAL-15">
          <mxGeometry y="50" width="160" height="70" as="geometry" />
        </mxCell>
        <mxCell id="u60Sw1pnuOSh4Vpb6YAL-18" value="childCategory" style="swimlane;childLayout=stackLayout;horizontal=1;startSize=50;horizontalStack=0;rounded=1;fontSize=14;fontStyle=0;strokeWidth=2;resizeParent=0;resizeLast=1;shadow=0;dashed=0;align=center;arcSize=4;whiteSpace=wrap;html=1;fillColor=#fff2cc;strokeColor=#d6b656;" vertex="1" parent="WIyWlLk6GJQsqaUBKTNV-1">
          <mxGeometry x="-380" y="440" width="160" height="120" as="geometry" />
        </mxCell>
        <mxCell id="u60Sw1pnuOSh4Vpb6YAL-19" value="+id&lt;br&gt;+idParent&lt;br&gt;+name&lt;br&gt;" style="align=left;strokeColor=none;fillColor=none;spacingLeft=4;fontSize=12;verticalAlign=top;resizable=0;rotatable=0;part=1;html=1;" vertex="1" parent="u60Sw1pnuOSh4Vpb6YAL-18">
          <mxGeometry y="50" width="160" height="70" as="geometry" />
        </mxCell>
        <mxCell id="u60Sw1pnuOSh4Vpb6YAL-21" style="rounded=0;orthogonalLoop=1;jettySize=auto;html=1;entryX=0.5;entryY=0;entryDx=0;entryDy=0;" edge="1" parent="WIyWlLk6GJQsqaUBKTNV-1" source="u60Sw1pnuOSh4Vpb6YAL-1" target="u60Sw1pnuOSh4Vpb6YAL-13">
          <mxGeometry relative="1" as="geometry" />
        </mxCell>
        <mxCell id="u60Sw1pnuOSh4Vpb6YAL-23" style="rounded=0;orthogonalLoop=1;jettySize=auto;html=1;entryX=0;entryY=0.5;entryDx=0;entryDy=0;exitX=1;exitY=0.5;exitDx=0;exitDy=0;" edge="1" parent="WIyWlLk6GJQsqaUBKTNV-1" source="u60Sw1pnuOSh4Vpb6YAL-1" target="u60Sw1pnuOSh4Vpb6YAL-5">
          <mxGeometry relative="1" as="geometry" />
        </mxCell>
        <mxCell id="u60Sw1pnuOSh4Vpb6YAL-24" style="rounded=0;orthogonalLoop=1;jettySize=auto;html=1;entryX=0;entryY=0.5;entryDx=0;entryDy=0;exitX=1;exitY=0.5;exitDx=0;exitDy=0;" edge="1" parent="WIyWlLk6GJQsqaUBKTNV-1" source="u60Sw1pnuOSh4Vpb6YAL-5" target="u60Sw1pnuOSh4Vpb6YAL-3">
          <mxGeometry relative="1" as="geometry" />
        </mxCell>
      </root>
    </mxGraphModel>
  </diagram>
</mxfile>
